<svg id="Capa_1" enable-background="new 0 0 512 512" height="512" viewBox="0 0 512 512" width="512" xmlns="http://www.w3.org/2000/svg"><g><g><path d="m427.565 317.641h-146.464v-51.351c0-14.629 11.859-26.488 26.487-26.488h119.977z" fill="#766e6e"/></g><g><path d="m394.339 239.802h33.226v77.839h-33.226z" fill="#5b5353"/></g><g><path d="m440.069 239.802h-92.371c-11 0-19.917-8.917-19.917-19.917v-76.415c0-11 8.917-19.917 19.917-19.917h92.371c11 0 19.917 8.917 19.917 19.917v76.415c.001 11-8.917 19.917-19.917 19.917z" fill="#766e6e"/></g><g><path d="m440.005 123.553h-3.541v72.746c0 11.036-8.946 19.982-19.981 19.982h-88.702v3.54c0 11.036 8.946 19.982 19.982 19.982h92.243c11.035 0 19.982-8.946 19.982-19.982v-76.286c-.001-11.036-8.948-19.982-19.983-19.982z" fill="#5b5353"/></g><g><path d="m418.604 201.32h-49.44c-3.489 0-6.317-2.828-6.317-6.317v-26.65c0-3.489 2.828-6.317 6.317-6.317h49.44c3.489 0 6.317 2.828 6.317 6.317v26.65c0 3.488-2.828 6.317-6.317 6.317z" fill="#9dc6fb"/></g><g><path d="m418.583 162.035h-7.63v18.979c0 3.5-2.837 6.338-6.338 6.338h-41.77v7.63c0 3.5 2.837 6.338 6.338 6.338h49.4c3.5 0 6.338-2.838 6.338-6.338v-26.609c0-3.5-2.837-6.338-6.338-6.338z" fill="#80b4fb"/></g><g><path d="m422.604 418.723h-189.646c-18.64 0-33.75-15.11-33.75-33.75v-29.563c0-18.64 15.11-33.75 33.75-33.75h189.645c18.64 0 33.75 15.11 33.75 33.75v29.563c.001 18.64-15.11 33.75-33.749 33.75z" fill="#766e6e"/></g><g><path d="m422.495 321.661h-3.918v25.427c0 18.7-15.159 33.859-33.859 33.859h-185.51v3.918c0 18.7 15.159 33.859 33.859 33.859h189.427c18.7 0 33.859-15.159 33.859-33.859v-29.345c.001-18.7-15.159-33.859-33.858-33.859z" fill="#5b5353"/></g><g><g><path d="m422.495 438.788h-189.428c-29.733 0-53.924-24.19-53.924-53.924v-29.344c0-29.733 24.19-53.924 53.924-53.924h189.427c29.733 0 53.924 24.19 53.924 53.924v29.344c0 29.734-24.19 53.924-53.923 53.924zm-189.428-97.063c-7.607 0-13.794 6.188-13.794 13.794v29.344c0 7.606 6.188 13.794 13.794 13.794h189.427c7.607 0 13.794-6.188 13.794-13.794v-29.343c0-7.606-6.188-13.794-13.794-13.794h-189.427z" fill="#c9beb9"/></g></g><g><g><path d="m449.14 308.669c4.491 7.866 7.072 16.957 7.072 26.645v29.345c0 29.733-24.19 53.924-53.924 53.924h-189.427c-9.688 0-18.779-2.581-26.645-7.072 9.293 16.275 26.806 27.278 46.851 27.278h189.427c29.733 0 53.924-24.19 53.924-53.924v-29.345c0-20.046-11.003-37.558-27.278-46.851z" fill="#9e9595"/></g></g><g><path d="m72.706 193.629-7.044-4.494c-12.755-8.136-16.499-25.072-8.363-37.827l19.099-29.94c8.136-12.755 25.072-16.499 37.827-8.363l7.044 4.494c12.755 8.136 16.499 25.072 8.363 37.827l-19.099 29.94c-8.136 12.756-25.072 16.5-37.827 8.363z" fill="#766e6e"/></g><g><path d="m123.028 118.713c-.309.569-.631 1.134-.985 1.688l-19.296 30.249c-8.082 12.67-24.905 16.389-37.575 8.307l-7.353-4.69c-.554-.354-1.085-.729-1.604-1.115-6.747 12.44-2.824 28.158 9.292 35.887l7.353 4.69c12.67 8.082 29.493 4.363 37.575-8.307l19.296-30.249c7.728-12.117 4.659-28.024-6.703-36.46z" fill="#5b5353"/></g><g><circle cx="394.152" cy="395.922" fill="#f9f5f5" r="93.506"/></g><g><path d="m439.384 314.072c7.424 13.405 11.655 28.823 11.655 45.232 0 51.642-41.864 93.506-93.506 93.506-16.409 0-31.827-4.232-45.232-11.655 15.941 28.784 46.617 48.274 81.851 48.274 51.642 0 93.506-41.864 93.506-93.506 0-35.234-19.49-65.911-48.274-81.851z" fill="#eedfda"/></g><g><g><path d="m394.152 504.476c-59.857 0-108.554-48.697-108.554-108.554s48.697-108.555 108.554-108.555 108.555 48.698 108.555 108.555-48.698 108.554-108.555 108.554zm0-187.011c-43.261 0-78.457 35.196-78.457 78.458s35.195 78.457 78.457 78.457 78.458-35.195 78.458-78.457-35.197-78.458-78.458-78.458z" fill="#da4a54"/></g></g><g><g><path d="m437.118 296.242c12.944 16.157 21.369 36.077 23.35 57.834 7.676 12.121 12.141 26.469 12.141 41.847 0 43.261-35.196 78.457-78.458 78.457-8.01 0-15.742-1.213-23.027-3.454-6.094 1.066-12.359 1.626-18.753 1.626-15.255 0-29.782-3.169-42.966-8.874 19.91 24.852 50.499 40.799 84.746 40.799 59.857 0 108.555-48.697 108.555-108.554 0-44.602-27.042-83.002-65.588-99.681z" fill="#d82e3d"/></g></g><g><path d="m355.322 168.373v26.609c0 7.644 6.218 13.862 13.862 13.862h49.4c7.643 0 13.862-6.218 13.862-13.862v-26.609c0-7.644-6.218-13.862-13.862-13.862h-49.4c-7.644 0-13.862 6.219-13.862 13.862zm15.048 1.187h47.026v24.236h-47.026z"/><path d="m394.151 309.94c-20.696 0-40.707 7.488-56.348 21.084-15.48 13.457-25.666 31.964-28.684 52.112-.615 4.109 2.217 7.94 6.327 8.556 4.108.613 7.94-2.217 8.556-6.327 5.155-34.42 35.312-60.377 70.149-60.377 39.113 0 70.934 31.821 70.934 70.934 0 39.112-31.821 70.933-70.934 70.933-30.327 0-57.307-19.3-67.138-48.025-1.346-3.932-5.626-6.028-9.555-4.683-3.932 1.346-6.028 5.624-4.683 9.555 11.914 34.812 44.616 58.201 81.376 58.201 47.41 0 85.982-38.571 85.982-85.981s-38.571-85.982-85.982-85.982z"/><path d="m435.089 287.305v-39.978h4.916c15.167 0 27.506-12.339 27.506-27.506v-76.286c0-15.167-12.339-27.506-27.506-27.506h-15.084c-4.155 0-7.524 3.369-7.524 7.524s3.369 7.524 7.524 7.524h15.084c6.869 0 12.457 5.588 12.457 12.458v76.286c0 6.869-5.588 12.457-12.457 12.457h-92.243c-6.869 0-12.457-5.588-12.457-12.457v-76.286c0-6.869 5.588-12.458 12.457-12.458h41.519c4.155 0 7.524-3.369 7.524-7.524s-3.369-7.524-7.524-7.524h-41.519c-15.167 0-27.506 12.339-27.506 27.506v66.709l-139.941-206.149c-2.504-3.384-7.172-5.585-12.677-2.888l-24.115 14.018c-4.308 2.507-5.96 7.973-3.761 12.444l1.147 2.331-45.6 71.485c-10.028 1.225-19.457 6.747-25.302 15.91l-14.159 22.196c-2.235 3.503-1.206 8.155 2.297 10.39 3.503 2.233 8.154 1.207 10.39-2.297l14.159-22.196c5.918-9.278 18.281-12.011 27.559-6.093l6.895 4.399c4.494 2.867 7.603 7.312 8.754 12.517 1.151 5.206.206 10.547-2.661 15.042l-19.003 29.791c-5.918 9.278-18.281 12.011-27.56 6.093l-6.895-4.399c-2.936-1.873-5.336-4.481-6.938-7.541-1.928-3.681-6.475-5.102-10.156-3.175-3.681 1.928-5.103 6.475-3.175 10.156 2.389 4.562 5.786 8.538 9.896 11.645l-11.633 18.237c-14.765-5.338-31.819.047-40.608 13.825-4.93 7.73-6.556 16.917-4.577 25.869s7.326 16.598 15.055 21.529c7.215 4.383 16.189 6.691 25.869 4.577 8.953-1.979 16.598-7.326 21.529-15.055 2.235-3.503 1.206-8.155-2.297-10.39-3.503-2.234-8.155-1.207-10.39 2.297-5.716 8.961-17.658 11.6-26.617 5.884-8.961-5.716-11.601-17.657-5.885-26.617 5.716-8.962 17.656-11.601 26.618-5.885 3.502 2.235 8.154 1.206 10.39-2.297l15.306-23.994c4.85 2.351 10.037 3.505 15.186 3.505 11.566-.001 22.901-5.718 29.569-16.171l19.004-29.791c5.028-7.883 6.686-17.253 4.668-26.383-.56-2.535-1.395-4.962-2.463-7.261l28.168-44.158 97.58 198.467c2.648 2.859 2.125 5.118 9.695 5.247v8.713h-40.509c-33.883 0-61.448 27.565-61.448 61.448v29.344c0 33.883 27.565 61.448 61.448 61.448h56.525c18.792 38.839 58.598 65.689 104.558 65.689 64.006 0 116.079-52.072 116.079-116.078 0-49.602-31.276-92.03-75.141-108.617zm-153.327-43.055 4.389-57.455 30.876 45.483h-9.352c-10.363 0-19.654 4.653-25.913 11.972zm-75.957-116.366 22.628-13.154-3.912 51.22zm-27.733-56.405 15.058-8.753-2.603 34.084zm12.893-24.902-14.045 8.165 1.981-25.937zm35.303 52.005-21.75 12.644 3.068-40.165zm16.62 24.483 26.642 39.247-31.017 18.031zm-78.443-102.596-1.54 20.163-7.368-14.985zm-36.173 92.809c-.966-.769-1.975-1.496-3.031-2.17l-6.895-4.399c-2.075-1.324-4.239-2.398-6.456-3.236l36.788-57.671 9.853 20.039zm111.518 83.729 31.905-18.547-5.516 72.217zm48.835 69.368c0-10.504 8.546-19.049 19.049-19.049h112.367v35.431c-8.328-1.904-16.993-2.914-25.89-2.914-20.146 0-39.108 5.163-55.638 14.229h-49.888zm-55.558 164.889c-25.585 0-46.399-20.815-46.399-46.399v-29.345c0-25.585 20.815-46.399 46.399-46.399h84.106c-8.22 7.298-15.4 15.742-21.287 25.081h-62.819c-11.755 0-21.319 9.564-21.319 21.319v29.344c0 11.755 9.564 21.319 21.319 21.319h45.465c.763 8.666 2.48 17.062 5.049 25.081h-50.514zm45.113-40.129h-45.113c-3.457 0-6.27-2.813-6.27-6.27v-29.345c0-3.457 2.813-6.27 6.27-6.27h54.814c-5.691 12.909-9.096 27.041-9.701 41.885zm115.971 105.817c-55.708 0-101.029-45.322-101.029-101.029 0-37.486 20.522-70.267 50.92-87.703.011-.006.023-.013.034-.019 14.769-8.464 31.867-13.308 50.076-13.308 55.708 0 101.03 45.322 101.03 101.03 0 55.707-45.322 101.029-101.031 101.029z"/><path d="m417.526 352.378c.463-.967-.777-1.844-1.534-1.084l-46.989 47.123c-.779.782-.226 2.115.878 2.115h15.381c1.003 0 1.664 1.045 1.235 1.951l-17.512 36.986c-.458.967.779 1.838 1.535 1.082l47.21-47.21c.781-.781.228-2.116-.877-2.116h-15.751c-1.006 0-1.667-1.05-1.233-1.957z"/></g></g></svg>