<svg enable-background="new 0 0 256 256" height="512" viewBox="0 0 256 256" width="512" xmlns="http://www.w3.org/2000/svg"><g id="Layer_61"><g><g><circle cx="174.69" cy="188.729" fill="#70d6f9" r="10.838"/></g><g><circle cx="218.515" cy="160.926" fill="#70d6f9" r="10.838"/></g><g><circle cx="218.515" cy="216.532" fill="#70d6f9" r="10.838"/></g><g><path d="m185.459 187.534 27.537-17.293c-2.783-1.653-4.759-4.509-5.21-7.857l-27.343 17.171c2.732 1.717 4.647 4.612 5.016 7.979z" fill="#cbeff7"/></g><g><path d="m212.996 207.215-27.537-17.293c-.37 3.367-2.284 6.262-5.016 7.979l27.343 17.171c.451-3.347 2.427-6.204 5.21-7.857z" fill="#cbeff7"/></g><g><path d="m195.877 14.743h-85.806c-10.159 0-18.424 8.265-18.424 18.424v62.576h39.23c10.159 0 18.424 8.265 18.424 18.424v23.23h46.576c10.159 0 18.424-8.265 18.424-18.424v-85.806c.001-10.159-8.264-18.424-18.424-18.424z" fill="#dae6f1"/></g><g><path d="m130.877 95.743h-85.806c-10.159 0-18.424 8.265-18.424 18.424v85.807c0 10.159 8.265 18.424 18.424 18.424h85.806c10.159 0 18.424-8.265 18.424-18.424v-85.807c.001-10.159-8.264-18.424-18.424-18.424z" fill="#edf4fc"/></g><g><path d="m45.071 208.398h85.806c4.653 0 8.424-3.772 8.424-8.424v-85.806c0-4.653-3.772-8.424-8.424-8.424h-85.806c-4.653 0-8.424 3.772-8.424 8.424v85.806c0 4.652 3.771 8.424 8.424 8.424z" fill="#3a70bf"/></g><g><path d="m195.877 24.743h-85.806c-4.653 0-8.424 3.772-8.424 8.425v62.576h29.231c10.159 0 18.424 8.265 18.424 18.424v13.231h46.575c4.653 0 8.424-3.772 8.424-8.424v-85.807c.001-4.653-3.771-8.425-8.424-8.425z" fill="#70d6f9"/></g><g><path d="m130.877 95.743c10.159 0 18.424 8.265 18.424 18.424v13.231h41.644l-61.997-61.998c-3.871-3.871-10.147-3.871-14.018 0l-13.283 13.283v17.06z" fill="#b2e26d"/></g><g><path d="m180.744 71.673c-3.29-3.29-8.624-3.29-11.914 0l-16.804 16.804 38.92 38.92h4.931c4.653 0 8.424-3.772 8.424-8.424v-23.742z" fill="#87d147"/></g><g><circle cx="151.443" cy="47.729" fill="#f5c84c" r="12"/></g><g><path d="m49.93 146.4c3.871-3.871 10.147-3.871 14.018 0l61.998 61.998h-80.875c-4.653 0-8.424-3.772-8.424-8.424v-40.29z" fill="#6cadef"/></g><g><path d="m115.744 152.673c-3.29-3.29-8.624-3.29-11.914 0l-16.804 16.804 38.92 38.92h4.931c4.653 0 8.424-3.772 8.424-8.424v-23.742z" fill="#5290db"/></g><g><circle cx="86.443" cy="128.729" fill="#dae6f1" r="12"/></g><g><g><g><path d="m145.435 237.266c-3.157-.561-5.613-3.017-6.245-6.104 0-.14-.281-.14-.281 0-.631 3.087-3.087 5.543-6.245 6.104-.14 0-.14.21 0 .281 3.157.561 5.613 3.017 6.245 6.104 0 .14.281.14.281 0 .632-3.087 3.087-5.543 6.245-6.104.14-.07.14-.281 0-.281z" fill="#fc657e"/></g></g></g><g><g><g><path d="m255.85 126.807c-4.5-.8-8-4.3-8.9-8.7 0-.2-.4-.2-.4 0-.9 4.4-4.4 7.9-8.9 8.7-.2 0-.2.3 0 .4 4.5.8 8 4.3 8.9 8.7 0 .2.4.2.4 0 .9-4.4 4.4-7.9 8.9-8.7.2-.1.2-.4 0-.4z" fill="#f5c84c"/></g></g></g><g><g><g><circle cx="3.4" cy="111.457" fill="#f5c84c" r="3.4"/></g></g></g><g><g><g><circle cx="232.624" cy="98.414" fill="#87d147" r="3.4"/></g></g></g><g><g><g><path d="m16.426 72.557h2.3v-2.3c0-1.7 1.4-3.2 3.2-3.2s3.2 1.4 3.2 3.2v2.3h2.3c1.7 0 3.2 1.4 3.2 3.2s-1.4 3.2-3.2 3.2h-2.3v2.3c0 1.7-1.4 3.2-3.2 3.2s-3.2-1.4-3.2-3.2v-2.3h-2.3c-1.7 0-3.2-1.4-3.2-3.2s1.4-3.2 3.2-3.2z" fill="#70d6f9"/></g></g></g><g><path d="m174.69 202.067c-7.355 0-13.339-5.983-13.339-13.339 0-7.354 5.984-13.338 13.339-13.338s13.338 5.983 13.338 13.338c0 7.356-5.983 13.339-13.338 13.339zm0-21.676c-4.598 0-8.339 3.74-8.339 8.338s3.741 8.339 8.339 8.339 8.338-3.741 8.338-8.339-3.74-8.338-8.338-8.338z"/></g><g><path d="m218.515 174.265c-7.355 0-13.338-5.983-13.338-13.339s5.983-13.339 13.338-13.339 13.338 5.983 13.338 13.339-5.983 13.339-13.338 13.339zm0-21.678c-4.598 0-8.338 3.741-8.338 8.339s3.741 8.339 8.338 8.339 8.338-3.741 8.338-8.339-3.741-8.339-8.338-8.339z"/></g><g><path d="m218.515 229.87c-7.355 0-13.338-5.983-13.338-13.339 0-7.354 5.983-13.338 13.338-13.338s13.338 5.983 13.338 13.338c0 7.356-5.983 13.339-13.338 13.339zm0-21.677c-4.598 0-8.338 3.74-8.338 8.338s3.741 8.339 8.338 8.339 8.338-3.741 8.338-8.339-3.741-8.338-8.338-8.338z"/></g><g><path d="m186.175 189.586c-.832 0-1.645-.414-2.12-1.171-.734-1.169-.382-2.712.788-3.446l26.065-16.368c1.17-.735 2.712-.382 3.447.788.734 1.169.382 2.712-.788 3.446l-26.065 16.368c-.413.26-.873.383-1.327.383z"/></g><g><path d="m181.091 181.649c-.832 0-1.645-.414-2.12-1.171-.734-1.169-.381-2.712.788-3.446l26.037-16.35c1.169-.735 2.712-.383 3.447.788.734 1.169.381 2.712-.788 3.446l-26.037 16.35c-.413.26-.873.383-1.327.383z"/></g><g><path d="m212.297 209.278c-.454 0-.914-.123-1.327-.383l-26.125-16.406c-1.169-.734-1.522-2.277-.788-3.446.734-1.171 2.277-1.524 3.447-.788l26.125 16.406c1.169.734 1.522 2.277.788 3.446-.476.757-1.289 1.171-2.12 1.171z"/></g><g><path d="m207.05 217.112c-.454 0-.914-.123-1.327-.383l-25.66-16.114c-1.169-.734-1.522-2.277-.788-3.446.734-1.171 2.276-1.524 3.447-.788l25.66 16.114c1.169.734 1.522 2.277.788 3.446-.476.757-1.289 1.171-2.12 1.171z"/></g><g><path d="m195.877 139.897h-45.503c-1.381 0-2.5-1.119-2.5-2.5s1.119-2.5 2.5-2.5h45.503c8.781 0 15.924-7.144 15.924-15.924v-85.806c0-8.78-7.144-15.924-15.924-15.924h-85.806c-8.781 0-15.924 7.144-15.924 15.924v61.78c0 1.381-1.119 2.5-2.5 2.5s-2.5-1.119-2.5-2.5v-61.78c0-11.537 9.387-20.924 20.924-20.924h85.806c11.538 0 20.924 9.387 20.924 20.924v85.807c.001 11.537-9.386 20.923-20.924 20.923z"/></g><g><path d="m130.877 220.897h-85.806c-11.538 0-20.924-9.387-20.924-20.924v-85.807c0-11.537 9.387-20.924 20.924-20.924h85.806c11.538 0 20.924 9.387 20.924 20.924v85.807c.001 11.538-9.386 20.924-20.924 20.924zm-85.806-122.654c-8.781 0-15.924 7.144-15.924 15.924v85.807c0 8.78 7.144 15.924 15.924 15.924h85.806c8.781 0 15.924-7.144 15.924-15.924v-85.807c0-8.78-7.144-15.924-15.924-15.924z"/></g><g><path d="m130.877 210.897h-85.806c-6.024 0-10.925-4.9-10.925-10.924v-85.807c0-6.023 4.901-10.924 10.925-10.924h85.806c6.024 0 10.925 4.9 10.925 10.924v85.807c0 6.024-4.901 10.924-10.925 10.924zm-85.806-102.654c-3.267 0-5.925 2.657-5.925 5.924v85.807c0 3.267 2.658 5.924 5.925 5.924h85.806c3.267 0 5.925-2.657 5.925-5.924v-85.807c0-3.267-2.658-5.924-5.925-5.924z"/></g><g><path d="m195.877 129.898h-45.793c-1.381 0-2.5-1.119-2.5-2.5s1.119-2.5 2.5-2.5h45.793c3.267 0 5.925-2.658 5.925-5.925v-85.805c0-3.267-2.658-5.925-5.925-5.925h-85.806c-3.267 0-5.925 2.658-5.925 5.925v61.779c0 1.381-1.119 2.5-2.5 2.5s-2.5-1.119-2.5-2.5v-61.779c0-6.024 4.901-10.925 10.925-10.925h85.806c6.024 0 10.925 4.9 10.925 10.925v85.806c0 6.024-4.901 10.924-10.925 10.924z"/></g><g><path d="m190.419 129.371c-.64 0-1.28-.244-1.768-.732l-61.471-61.471c-1.4-1.399-3.262-2.171-5.241-2.171-1.98 0-3.841.771-5.241 2.171l-13.026 13.024c-.976.977-2.559.977-3.536 0-.976-.977-.976-2.56 0-3.535l13.025-13.024c2.344-2.345 5.461-3.636 8.776-3.636s6.432 1.291 8.776 3.636l61.472 61.471c.977.977.977 2.559 0 3.535-.486.488-1.126.732-1.766.732z"/></g><g><path d="m204.105 97.534c-.64 0-1.28-.244-1.768-.732l-23.361-23.362c-2.31-2.309-6.068-2.309-8.379 0l-16.484 16.484c-.976.977-2.56.977-3.535 0-.977-.977-.977-2.559 0-3.535l16.484-16.484c4.259-4.258 11.189-4.26 15.449 0l23.361 23.361c.977.977.977 2.559 0 3.535-.487.489-1.127.733-1.767.733z"/></g><g><path d="m151.443 62.229c-7.995 0-14.5-6.505-14.5-14.5s6.505-14.5 14.5-14.5 14.5 6.505 14.5 14.5-6.505 14.5-14.5 14.5zm0-24c-5.238 0-9.5 4.262-9.5 9.5s4.262 9.5 9.5 9.5 9.5-4.262 9.5-9.5-4.262-9.5-9.5-9.5z"/></g><g><path d="m125.292 210.243c-.64 0-1.28-.244-1.768-.732l-61.344-61.344c-2.89-2.889-7.592-2.889-10.482 0l-12.859 12.859c-.976.977-2.56.977-3.535 0-.977-.976-.977-2.559 0-3.535l12.859-12.859c4.839-4.84 12.713-4.84 17.553 0l61.344 61.344c.977.977.977 2.559 0 3.535-.489.488-1.129.732-1.768.732z"/></g><g><path d="m138.868 178.297c-.64 0-1.28-.244-1.768-.732l-23.124-23.124c-2.31-2.309-6.068-2.309-8.379 0l-16.359 16.36c-.976.977-2.56.977-3.535 0-.977-.976-.977-2.559 0-3.535l16.359-16.36c4.259-4.258 11.189-4.26 15.449 0l23.124 23.124c.977.977.977 2.559 0 3.535-.488.488-1.128.732-1.767.732z"/></g><g><path d="m86.443 143.229c-7.995 0-14.5-6.505-14.5-14.5s6.505-14.5 14.5-14.5 14.5 6.505 14.5 14.5-6.505 14.5-14.5 14.5zm0-24c-5.238 0-9.5 4.262-9.5 9.5s4.262 9.5 9.5 9.5 9.5-4.262 9.5-9.5-4.262-9.5-9.5-9.5z"/></g></g></g></svg>