<svg id="Capa_1" enable-background="new 0 0 512.001 512.001" height="512" viewBox="0 0 512.001 512.001" width="512" xmlns="http://www.w3.org/2000/svg"><g><g clip-rule="evenodd" fill-rule="evenodd"><path d="m331.688 117.353c-41.801-41.801-109.573-41.801-151.374 0-2.774 2.774-5.364 5.663-7.77 8.65-33.846 42.032-31.257 103.697 7.77 142.724 14.479 14.479 32.076 23.94 50.629 28.387 5.947 10.309 11.894 20.616 17.849 30.931 3.263 5.634 11.363 5.449 14.468-.097 5.933-10.276 11.862-20.554 17.791-30.832 18.556-4.448 36.155-13.908 50.637-28.389 39.027-39.027 41.617-100.692 7.77-142.724-2.406-2.987-4.996-5.876-7.77-8.65z" fill="#fff"/><path d="m180.314 117.353c41.801-41.801 109.573-41.801 151.374 0 2.774 2.774 5.364 5.663 7.77 8.65h50.384c5.389 0 10.563 4.028 12.156 10l58.668 219.997h41.335l-80.002-300c-2.834-10.628-9.004-20-20-20h-291.996c-10.996 0-17.167 9.376-20 20l-80.003 300h41.335l58.668-219.997c1.592-5.972 6.767-10 12.156-10h50.384c2.406-2.987 4.996-5.876 7.771-8.65z" fill="#a0c8ff"/><path d="m180.314 268.727c-39.027-39.027-41.617-100.692-7.77-142.724h-50.384c-5.389 0-10.563 4.028-12.156 10l-58.669 219.997h84.665c0 22 18 40 39.999 40h160.001c22 0 39.999-18 39.999-40h84.665l-58.668-219.997c-1.592-5.972-6.767-10-12.156-10h-50.384c33.846 42.032 31.257 103.697-7.77 142.724-14.481 14.482-32.08 23.942-50.637 28.389-5.93 10.278-11.859 20.555-17.791 30.832-3.105 5.546-11.205 5.731-14.468.097-5.955-10.315-11.902-20.623-17.849-30.931-18.552-4.446-36.148-13.908-50.627-28.387z" fill="#a0c8ff"/><path d="m136.001 356h-84.665-41.336v100c0 11 9 20 20 20h452.002c11 0 20-9 20-20v-100h-41.335-84.665c0 22-17.999 40-39.999 40h-160.003c-21.999 0-39.999-17.999-39.999-40z" fill="#60a4ff"/></g><g><path d="m511.664 353.423-80.003-299.999c-4.647-17.428-15.458-27.423-29.662-27.423h-291.997c-14.204 0-25.015 9.995-29.662 27.422l-80.002 300c-.225.84-.338 1.707-.338 2.577v100c0 16.543 13.458 30.001 30 30.001h452.001c16.542 0 30-13.458 30-30.001v-100c0-.87-.113-1.737-.337-2.577zm-22.679-7.423h-20.636l-56.35-211.304v-77.314c.12.402.232.801.337 1.195zm-99.143-229.996h-45.728c-1.709-1.952-3.494-3.862-5.355-5.723-45.634-45.633-119.884-45.633-165.517 0-1.861 1.861-3.646 3.77-5.355 5.723h-45.728c-.725 0-1.445.037-2.157.109v-70.112h271.997v70.112c-.712-.072-1.431-.109-2.157-.109zm-133.844 204.522c-5.469-9.473-10.931-18.939-16.393-28.408-1.372-2.378-3.661-4.088-6.331-4.728-17.343-4.157-33.211-13.056-45.889-25.734-37.835-37.835-37.835-99.397 0-137.232 37.836-37.836 99.398-37.835 137.232 0 37.835 37.835 37.835 99.397 0 137.232-12.678 12.679-28.549 21.578-45.896 25.735-2.67.64-4.959 2.35-6.332 4.728-5.463 9.47-10.926 18.938-16.391 28.407zm-156.332-261.95c.105-.394.217-.793.337-1.195v77.313l-13.694 51.351c-1.423 5.337 1.75 10.816 7.086 12.239.863.23 1.73.341 2.583.341 4.419 0 8.463-2.953 9.656-7.426l13.987-52.449c.022-.077.043-.154.063-.231.463-1.642 1.728-2.516 2.477-2.516h31.627c-24.834 44.544-18.349 101.99 19.456 139.795 14.252 14.252 31.853 24.545 51.131 29.94 5.25 9.101 10.502 18.202 15.765 27.318 3.317 5.727 9.228 9.133 15.835 9.133h.141c6.559-.049 12.617-3.604 15.832-9.286 5.227-9.054 10.451-18.108 15.676-27.164 19.282-5.396 36.886-15.689 51.138-29.941 37.804-37.805 44.29-95.251 19.456-139.795h31.627c.753 0 2.029.885 2.484 2.545.013.051.027.102.041.153l55.28 207.299h-71.65c-5.523 0-10 4.478-10 10 0 16.542-13.458 30-29.999 30h-160.001c-16.542 0-30-13.457-30-29.999 0-5.522-4.477-10-10-10l-71.648-.001 18.087-67.824c1.423-5.337-1.75-10.816-7.086-12.239-5.334-1.424-10.816 1.75-12.239 7.085l-19.461 72.978h-20.637zm392.335 397.424c0 5.515-4.486 10.001-10 10.001h-452.001c-5.514 0-10-4.486-10-10.001v-90l107.005.001c4.647 22.793 24.85 39.999 48.995 39.999h160.001c24.146 0 44.349-17.206 48.995-40h107.005z"/><path d="m206.005 183.04h-.008c-5.523 0-9.996 4.478-9.996 10s4.481 10 10.004 10 10-4.478 10-10-4.477-10-10-10z"/><path d="m256.004 183.04h-.007c-5.523 0-9.997 4.478-9.997 10s4.481 10 10.004 10 10-4.478 10-10-4.477-10-10-10z"/><path d="m306.004 203.04c5.523 0 10-4.478 10-10s-4.477-10-10-10h-.007c-5.523 0-9.997 4.478-9.997 10s4.481 10 10.004 10z"/><path d="m84.374 242.11c5.523 0 10-4.478 10-10s-4.477-10-10-10h-.007c-5.523 0-9.996 4.478-9.996 10s4.48 10 10.003 10z"/></g></g></svg>